<svg width="26" height="8" viewBox="0 0 26 8" fill="none" xmlns="http://www.w3.org/2000/svg">
  <path fill-rule="evenodd" clip-rule="evenodd" d="M2.26522 3.80309C2.24699 4.797 3.08037 5.61834 4.12663 5.63753C5.1729 5.65672 6.03583 4.86649 6.05406 3.87257C6.07229 2.87866 5.23891 2.05732 4.19265 2.03813C3.14639 2.01894 2.28345 2.80917 2.26522 3.80309ZM4.10463 6.83733C2.36087 6.80534 0.971895 5.43648 1.00228 3.77992C1.03266 2.12336 2.47089 0.806353 4.21465 0.838335C5.95841 0.870316 7.34739 2.23918 7.317 3.89574C7.28662 5.5523 5.84839 6.86931 4.10463 6.83733ZM11.1058 3.96523C11.0876 4.95914 11.921 5.78048 12.9673 5.79967C14.0135 5.81886 14.8764 5.02863 14.8947 4.03471C14.9129 3.0408 14.0795 2.21946 13.0333 2.20027C11.987 2.18108 11.1241 2.97131 11.1058 3.96523ZM12.9452 6.99947C11.2015 6.96748 9.81251 5.59862 9.8429 3.94206C9.87328 2.2855 11.3115 0.968494 13.0553 1.00047C14.799 1.03246 16.188 2.40132 16.1576 4.05788C16.1272 5.71444 14.689 7.03145 12.9452 6.99947ZM19.9465 4.12737C19.9282 5.12128 20.7616 5.94262 21.8079 5.96181C22.8541 5.981 23.7171 5.19077 23.7353 4.19685C23.7535 3.20294 22.9201 2.3816 21.8739 2.36241C20.8277 2.34322 19.9647 3.13345 19.9465 4.12737ZM21.7859 7.16161C20.0421 7.12962 18.6531 5.76076 18.6835 4.1042C18.7139 2.44764 20.1521 1.13063 21.8959 1.16261C23.6396 1.1946 25.0286 2.56346 24.9982 4.22002C24.9679 5.87658 23.5296 7.19359 21.7859 7.16161Z" fill="black"/>
</svg>