<svg width="26" height="26" viewBox="0 0 26 26" fill="none" xmlns="http://www.w3.org/2000/svg">
<path d="M5.70866 23.1563C5.42723 23.1552 5.1496 23.0911 4.89616 22.9688C4.58549 22.8228 4.32266 22.5916 4.13825 22.3021C3.95384 22.0126 3.85544 21.6766 3.85449 21.3334V3.62504C3.85585 3.3834 3.90496 3.14441 3.99901 2.92181C4.09306 2.69922 4.23018 2.49741 4.4025 2.328C4.57481 2.15859 4.77892 2.02492 5.00308 1.93467C5.22724 1.84442 5.46703 1.79937 5.70866 1.80212H20.292C20.7746 1.80486 21.2367 1.99779 21.578 2.33906C21.9192 2.68033 22.1122 3.14241 22.1149 3.62504V21.3334C22.1081 21.6632 22.012 21.9851 21.8367 22.2646C21.6613 22.5441 21.4134 22.7708 21.1194 22.9205C20.8254 23.0702 20.4962 23.1373 20.1671 23.1146C19.8379 23.0919 19.521 22.9803 19.2503 22.7917L13.2087 18.2605C13.1643 18.225 13.1092 18.2056 13.0524 18.2056C12.9956 18.2056 12.9405 18.225 12.8962 18.2605L6.80241 22.7917C6.48617 23.027 6.10284 23.1548 5.70866 23.1563ZM5.70866 3.36462C5.63959 3.36462 5.57335 3.39206 5.52452 3.44089C5.47568 3.48973 5.44824 3.55597 5.44824 3.62504V21.3334C5.44788 21.3816 5.46145 21.4288 5.48732 21.4695C5.51319 21.5101 5.55027 21.5425 5.59408 21.5625C5.63395 21.5899 5.68116 21.6045 5.72949 21.6045C5.77783 21.6045 5.82503 21.5899 5.86491 21.5625L11.9587 17.0105C12.2755 16.777 12.6588 16.651 13.0524 16.651C13.446 16.651 13.8293 16.777 14.1462 17.0105L20.1878 21.5417C20.2277 21.569 20.2749 21.5836 20.3232 21.5836C20.3716 21.5836 20.4188 21.569 20.4587 21.5417C20.5025 21.5216 20.5395 21.4893 20.5654 21.4487C20.5913 21.408 20.6049 21.3607 20.6045 21.3125V3.62504C20.6053 3.58598 20.5973 3.54724 20.5811 3.5117C20.5649 3.47616 20.5409 3.44472 20.5108 3.41971C20.4808 3.3947 20.4456 3.37676 20.4077 3.36723C20.3698 3.35769 20.3303 3.3568 20.292 3.36462H5.70866Z" fill="black"/>
</svg>
